<mxfile host="Electron" agent="Mozilla/5.0 (Windows NT 10.0; Win64; x64) AppleWebKit/537.36 (KHTML, like Gecko) draw.io/28.1.2 Chrome/138.0.7204.243 Electron/37.4.0 Safari/537.36" version="28.1.2">
  <diagram name="Página-1" id="dHwgdzgk47b-v6qEwVvC">
    <mxGraphModel dx="786" dy="516" grid="1" gridSize="10" guides="1" tooltips="1" connect="1" arrows="1" fold="1" page="1" pageScale="1" pageWidth="827" pageHeight="1169" math="0" shadow="0">
      <root>
        <mxCell id="0" />
        <mxCell id="1" parent="0" />
        <mxCell id="ULqsHk2cuY5sqKNWizC6-1" value="&amp;lt;abstract&amp;gt;Vehiculo" style="swimlane;fontStyle=1;align=center;verticalAlign=top;childLayout=stackLayout;horizontal=1;startSize=26;horizontalStack=0;resizeParent=1;resizeParentMax=0;resizeLast=0;collapsible=1;marginBottom=0;whiteSpace=wrap;html=1;" vertex="1" parent="1">
          <mxGeometry x="320" y="50" width="240" height="210" as="geometry" />
        </mxCell>
        <mxCell id="ULqsHk2cuY5sqKNWizC6-2" value="# modelo: String&lt;div&gt;# marca: String&lt;/div&gt;&lt;div&gt;# año: int&lt;/div&gt;&lt;div&gt;#precioPorDia: double&lt;/div&gt;" style="text;strokeColor=none;fillColor=none;align=left;verticalAlign=top;spacingLeft=4;spacingRight=4;overflow=hidden;rotatable=0;points=[[0,0.5],[1,0.5]];portConstraint=eastwest;whiteSpace=wrap;html=1;" vertex="1" parent="ULqsHk2cuY5sqKNWizC6-1">
          <mxGeometry y="26" width="240" height="64" as="geometry" />
        </mxCell>
        <mxCell id="ULqsHk2cuY5sqKNWizC6-3" value="" style="line;strokeWidth=1;fillColor=none;align=left;verticalAlign=middle;spacingTop=-1;spacingLeft=3;spacingRight=3;rotatable=0;labelPosition=right;points=[];portConstraint=eastwest;strokeColor=inherit;" vertex="1" parent="ULqsHk2cuY5sqKNWizC6-1">
          <mxGeometry y="90" width="240" height="8" as="geometry" />
        </mxCell>
        <mxCell id="ULqsHk2cuY5sqKNWizC6-4" value="+ Vehiculo()&lt;div&gt;+ getters&lt;/div&gt;&lt;div&gt;+ setters&lt;br&gt;&lt;div&gt;+ &amp;lt;abstract&amp;gt; calcularPrecio(int): int&lt;/div&gt;&lt;div&gt;+ &amp;lt;abstract&amp;gt;calcularPrecioAlquiler(int): int&lt;/div&gt;&lt;div&gt;+ presentar(): String&lt;/div&gt;&lt;div&gt;+ toString(): String&lt;/div&gt;&lt;/div&gt;" style="text;strokeColor=none;fillColor=none;align=left;verticalAlign=top;spacingLeft=4;spacingRight=4;overflow=hidden;rotatable=0;points=[[0,0.5],[1,0.5]];portConstraint=eastwest;whiteSpace=wrap;html=1;" vertex="1" parent="ULqsHk2cuY5sqKNWizC6-1">
          <mxGeometry y="98" width="240" height="112" as="geometry" />
        </mxCell>
        <mxCell id="ULqsHk2cuY5sqKNWizC6-5" value="Auto" style="swimlane;fontStyle=1;align=center;verticalAlign=top;childLayout=stackLayout;horizontal=1;startSize=26;horizontalStack=0;resizeParent=1;resizeParentMax=0;resizeLast=0;collapsible=1;marginBottom=0;whiteSpace=wrap;html=1;" vertex="1" parent="1">
          <mxGeometry x="174" y="320" width="160" height="110" as="geometry" />
        </mxCell>
        <mxCell id="ULqsHk2cuY5sqKNWizC6-6" value="- tipoCombustible: String" style="text;strokeColor=none;fillColor=none;align=left;verticalAlign=top;spacingLeft=4;spacingRight=4;overflow=hidden;rotatable=0;points=[[0,0.5],[1,0.5]];portConstraint=eastwest;whiteSpace=wrap;html=1;" vertex="1" parent="ULqsHk2cuY5sqKNWizC6-5">
          <mxGeometry y="26" width="160" height="26" as="geometry" />
        </mxCell>
        <mxCell id="ULqsHk2cuY5sqKNWizC6-7" value="" style="line;strokeWidth=1;fillColor=none;align=left;verticalAlign=middle;spacingTop=-1;spacingLeft=3;spacingRight=3;rotatable=0;labelPosition=right;points=[];portConstraint=eastwest;strokeColor=inherit;" vertex="1" parent="ULqsHk2cuY5sqKNWizC6-5">
          <mxGeometry y="52" width="160" height="8" as="geometry" />
        </mxCell>
        <mxCell id="ULqsHk2cuY5sqKNWizC6-8" value="+ calcularPrecioAlquiler&lt;div&gt;&lt;div&gt;+ getters&lt;/div&gt;&lt;div&gt;+ setters&lt;/div&gt;&lt;/div&gt;" style="text;strokeColor=none;fillColor=none;align=left;verticalAlign=top;spacingLeft=4;spacingRight=4;overflow=hidden;rotatable=0;points=[[0,0.5],[1,0.5]];portConstraint=eastwest;whiteSpace=wrap;html=1;" vertex="1" parent="ULqsHk2cuY5sqKNWizC6-5">
          <mxGeometry y="60" width="160" height="50" as="geometry" />
        </mxCell>
        <mxCell id="ULqsHk2cuY5sqKNWizC6-9" value="Moto" style="swimlane;fontStyle=1;align=center;verticalAlign=top;childLayout=stackLayout;horizontal=1;startSize=26;horizontalStack=0;resizeParent=1;resizeParentMax=0;resizeLast=0;collapsible=1;marginBottom=0;whiteSpace=wrap;html=1;" vertex="1" parent="1">
          <mxGeometry x="540" y="320" width="160" height="110" as="geometry" />
        </mxCell>
        <mxCell id="ULqsHk2cuY5sqKNWizC6-10" value="- cilindrada: int" style="text;strokeColor=none;fillColor=none;align=left;verticalAlign=top;spacingLeft=4;spacingRight=4;overflow=hidden;rotatable=0;points=[[0,0.5],[1,0.5]];portConstraint=eastwest;whiteSpace=wrap;html=1;" vertex="1" parent="ULqsHk2cuY5sqKNWizC6-9">
          <mxGeometry y="26" width="160" height="26" as="geometry" />
        </mxCell>
        <mxCell id="ULqsHk2cuY5sqKNWizC6-11" value="" style="line;strokeWidth=1;fillColor=none;align=left;verticalAlign=middle;spacingTop=-1;spacingLeft=3;spacingRight=3;rotatable=0;labelPosition=right;points=[];portConstraint=eastwest;strokeColor=inherit;" vertex="1" parent="ULqsHk2cuY5sqKNWizC6-9">
          <mxGeometry y="52" width="160" height="8" as="geometry" />
        </mxCell>
        <mxCell id="ULqsHk2cuY5sqKNWizC6-20" value="+ calcularPrecioAlquiler&lt;div&gt;&lt;div&gt;+ getters&lt;/div&gt;&lt;div&gt;+ setters&lt;/div&gt;&lt;/div&gt;" style="text;strokeColor=none;fillColor=none;align=left;verticalAlign=top;spacingLeft=4;spacingRight=4;overflow=hidden;rotatable=0;points=[[0,0.5],[1,0.5]];portConstraint=eastwest;whiteSpace=wrap;html=1;" vertex="1" parent="ULqsHk2cuY5sqKNWizC6-9">
          <mxGeometry y="60" width="160" height="50" as="geometry" />
        </mxCell>
        <mxCell id="ULqsHk2cuY5sqKNWizC6-17" value="Alquiler de vehiculos" style="text;align=center;fontStyle=1;verticalAlign=middle;spacingLeft=3;spacingRight=3;strokeColor=none;rotatable=0;points=[[0,0.5],[1,0.5]];portConstraint=eastwest;html=1;" vertex="1" parent="1">
          <mxGeometry x="110" y="30" width="80" height="26" as="geometry" />
        </mxCell>
        <mxCell id="ULqsHk2cuY5sqKNWizC6-18" value="Extends" style="endArrow=block;endSize=16;endFill=0;html=1;rounded=0;exitX=0.006;exitY=1.007;exitDx=0;exitDy=0;exitPerimeter=0;entryX=0.5;entryY=0;entryDx=0;entryDy=0;" edge="1" parent="1" source="ULqsHk2cuY5sqKNWizC6-4" target="ULqsHk2cuY5sqKNWizC6-5">
          <mxGeometry width="160" relative="1" as="geometry">
            <mxPoint x="330" y="270" as="sourcePoint" />
            <mxPoint x="490" y="270" as="targetPoint" />
          </mxGeometry>
        </mxCell>
        <mxCell id="ULqsHk2cuY5sqKNWizC6-21" value="Extends" style="endArrow=block;endSize=16;endFill=0;html=1;rounded=0;exitX=0.994;exitY=1.007;exitDx=0;exitDy=0;exitPerimeter=0;entryX=0.5;entryY=0;entryDx=0;entryDy=0;" edge="1" parent="1" source="ULqsHk2cuY5sqKNWizC6-4" target="ULqsHk2cuY5sqKNWizC6-9">
          <mxGeometry width="160" relative="1" as="geometry">
            <mxPoint x="615" y="270" as="sourcePoint" />
            <mxPoint x="490" y="359" as="targetPoint" />
          </mxGeometry>
        </mxCell>
      </root>
    </mxGraphModel>
  </diagram>
</mxfile>
